PathFileType	4	(X/Y/Z)	C:\Users\Basilio\Documents\Thesis Gigler\squatting_fais\c3dfiles\040\SJ_pre3\markers_experimental.trc
DataRate	CameraRate	NumFrames	NumMarkers	Units	OrigDataRate	OrigDataStartFrame	OrigNumFrames
200.000000	200.000000	4	63	mm	200.000000	156	1251
Frame#	Time	FHD			LBHD			RBHD			C7			T10			CLAV			LSHO			LUUPA			LMUPA			LDUPA			LLEP			LMEP			LRAD			LUL			LRFIN			RSHO			RUPA1			RMUPA			RDUPA			RLEP			RMEP			RRAD			RUL			RUFIN			LASI			RASI			USACR			LSACR			RSACR			LTHI1			LTHI2			LTHI3			LTHI4			LLFC			LMFC			LTIB1			LTIB2			LTIB3			LTIB4			LLMAL			LMMAL			LHEE			LMT1			LMT2			LMT5			RTHI			RTHI2			RTHI3			RTHI4			RLFC			RMFC			RTIB1			RTIB2			RTIB3			RTIB4			RLMAL			RMMAL			RHEE			RMT1			RMT2			RMT5			*61			*62			
		X1	Y1	Z1	X2	Y2	Z2	X3	Y3	Z3	X4	Y4	Z4	X5	Y5	Z5	X6	Y6	Z6	X7	Y7	Z7	X8	Y8	Z8	X9	Y9	Z9	X10	Y10	Z10	X11	Y11	Z11	X12	Y12	Z12	X13	Y13	Z13	X14	Y14	Z14	X15	Y15	Z15	X16	Y16	Z16	X17	Y17	Z17	X18	Y18	Z18	X19	Y19	Z19	X20	Y20	Z20	X21	Y21	Z21	X22	Y22	Z22	X23	Y23	Z23	X24	Y24	Z24	X25	Y25	Z25	X26	Y26	Z26	X27	Y27	Z27	X28	Y28	Z28	X29	Y29	Z29	X30	Y30	Z30	X31	Y31	Z31	X32	Y32	Z32	X33	Y33	Z33	X34	Y34	Z34	X35	Y35	Z35	X36	Y36	Z36	X37	Y37	Z37	X38	Y38	Z38	X39	Y39	Z39	X40	Y40	Z40	X41	Y41	Z41	X42	Y42	Z42	X43	Y43	Z43	X44	Y44	Z44	X45	Y45	Z45	X46	Y46	Z46	X47	Y47	Z47	X48	Y48	Z48	X49	Y49	Z49	X50	Y50	Z50	X51	Y51	Z51	X52	Y52	Z52	X53	Y53	Z53	X54	Y54	Z54	X55	Y55	Z55	X56	Y56	Z56	X57	Y57	Z57	X58	Y58	Z58	X59	Y59	Z59	X60	Y60	Z60	X61	Y61	Z61	X62	Y62	Z62	X63	Y63	Z63	

157	0.78	-180.0444641113282	1727.729125976563	-890.9018554687502	-315.1303405761719	1697.95556640625	-916.0330200195315	-355.9551696777344	1664.881225585938	-778.1478271484377	-396.4461669921876	1550.995239257813	-838.4118652343752	-470.7171630859376	1232.92138671875	-844.9373168945315	-286.0396118164063	1459.0166015625	-830.380065917969	-336.5528259277344	1520.602416992188	-1000.927551269531	-420.998992919922	1396.411987304688	-1150.590698242188	-406.9693603515626	1349.201049804688	-1146.653686523438	-447.9652404785157	1346.680419921875	-1190.787475585938	-480.9703674316407	1302.050537109375	-1230.38818359375	-542.4924316406251	1297.590576171875	-1183.909545898438	-446.0911254882814	1066.832885742188	-1060.224609375	-398.5657348632814	1045.36328125	-1114.611328125	-395.7845458984376	1076.870849609375	-1018.883544921875	-344.1443786621094	1508.057373046875	-663.6595458984376	-453.4456176757814	1420.56494140625	-510.2012634277345	-432.9537048339845	1375.8203125	-500.0509033203126	-478.1060180664064	1376.632568359375	-461.2355041503907	-492.0352478027345	1317.798461914063	-420.0481872558595	-558.9255371093751	1301.317138671875	-470.8006286621095	-426.7402343750001	1113.51220703125	-609.0834350585939	-391.1604919433595	1076.506958007813	-553.3995361328126	-367.8314819335938	1122.20166015625	-652.6996459960939	-304.5310058593751	1033.954223632813	-932.3201904296877	-321.3081054687501	1039.728271484375	-715.5436401367189	-494.1466064453126	1101.677490234375	-833.0549316406252	-499.9254760742189	1072.004272460938	-859.6524047851565	-508.7506408691407	1074.417358398438	-804.609313964844	-435.624481201172	799.5169067382815	-1031.665771484375	-397.748992919922	727.7327880859376	-1054.919921875	-350.4721374511719	731.9882812500001	-1055.445922851563	-418.6126708984376	672.0512084960939	-1048.934204101563	-397.0612182617189	542.5252075195314	-1066.262939453125	-389.4538574218751	496.3533935546876	-940.5698242187502	-361.6640930175782	316.8977355957032	-1074.518310546875	-433.9312133789064	287.9916381835938	-1116.045654296875	-391.5855712890626	277.3035888671876	-1107.259521484375	-381.2501220703126	193.0374298095704	-1087.66748046875	-447.7481994628907	103.4509429931641	-1114.018310546875	-407.620574951172	107.3154983520508	-1034.343139648438	-498.0714111328126	43.64130401611329	-1071.661499023438	-276.4215393066407	59.2290382385254	-1073.814575195313	-281.1776123046876	55.2293167114258	-1119.970092773438	-331.7242431640626	30.45326614379884	-1164.826782226563	-400.2409057617189	790.8631591796877	-622.7401733398439	-365.7140197753907	733.3240356445314	-618.2722778320314	-333.3863525390626	734.2383422851564	-622.3998413085939	-396.0435180664064	655.3175048828126	-628.6581420898439	-386.5159301757814	522.9238281250001	-625.3775024414064	-373.5857238769532	503.9003906250001	-756.9210205078126	-355.2409362792969	331.1782531738282	-631.1261596679689	-437.1462402343751	265.9496154785157	-606.1908569335939	-392.5411987304689	255.9153900146485	-612.3732299804689	-380.1464843750001	205.7291259765626	-640.5222167968751	-447.8050231933595	100.4752960205078	-615.3353271484376	-416.6419677734376	105.8021697998047	-700.9562988281251	-500.6080932617189	47.04075241088868	-677.5306396484376	-279.5073242187501	57.12281417846681	-643.3640747070314	-290.9144897460938	60.65265274047853	-604.0610351562501	-340.6232910156251	36.23991394042969	-559.3732910156251	nan	nan	nan	nan	nan	nan	
158	0.785	-180.226303100586	1727.632202148438	-890.0678710937502	-315.1473083496094	1697.988037109375	-915.2937622070315	-355.5025634765626	1664.80078125	-777.8113403320315	-396.3724060058595	1550.76611328125	-837.683044433594	-470.6729431152345	1232.91064453125	-844.4000244140627	-285.9289550781251	1459.209716796875	-829.5749511718752	-336.5708007812501	1520.641479492188	-1000.058837890625	-420.6836853027345	1396.52978515625	-1150.002563476563	-406.7994689941407	1349.308715820313	-1145.811279296875	-447.6599731445314	1346.747192382813	-1190.28076171875	-480.6866149902345	1302.208740234375	-1229.878662109375	-542.3312377929689	1297.857788085938	-1183.428833007813	-446.0386352539064	1066.72607421875	-1059.709228515625	-398.7589416503907	1045.329711914063	-1114.199584960938	-395.8956909179689	1076.84912109375	-1018.5751953125	-344.1256408691407	1507.729248046875	-662.8425903320314	-453.2080993652345	1420.448608398438	-509.3994445800782	-432.5878906250001	1375.469360351563	-499.3661499023439	-477.643280029297	1376.650146484375	-460.1224975585939	-491.7853088378907	1317.505493164063	-419.3885498046876	-558.7196044921876	1301.211059570313	-470.0520324707032	-426.6920776367189	1113.610595703125	-608.5596313476564	-391.2816162109376	1076.329223632813	-553.0576171875001	-367.9497070312501	1122.435180664063	-652.4069213867189	-305.0244445800782	1033.83544921875	-931.7480468750002	-321.4313049316407	1039.891967773438	-715.4096679687501	-494.3157348632814	1101.713256835938	-832.6253051757815	-500.2018432617189	1072.032836914063	-859.2403564453127	-508.8890686035157	1074.436157226563	-804.2497558593752	-435.411102294922	799.2502441406252	-1031.48974609375	-397.2946166992189	727.7158813476564	-1054.68994140625	-349.9544677734376	732.0988159179689	-1055.156860351563	-418.0052185058595	671.9607543945314	-1048.766357421875	-395.3291015625001	542.1834106445314	-1065.9072265625	-388.4767456054689	496.3640136718751	-940.545837402344	-360.9870605468751	317.2095642089844	-1074.44677734375	-433.4284057617189	288.0237731933594	-1115.9755859375	-391.9044494628907	277.0130615234376	-1106.575805664063	-381.0715942382813	192.9436645507813	-1087.64501953125	-447.658416748047	103.4828491210938	-1114.139282226563	-407.6582641601564	107.4823989868164	-1034.429077148438	-498.0423278808595	43.69747543334962	-1071.64453125	-276.6524353027344	59.24583816528322	-1073.862426757813	-281.1556396484376	55.23421096801759	-1120.000732421875	-331.7307739257813	30.42405319213868	-1164.82177734375	-399.9960021972657	790.7432861328127	-622.4658203125001	-365.3462524414063	732.9655151367189	-618.1010742187501	-332.9055175781251	734.2971801757814	-622.2530517578126	-395.1774291992189	655.1019897460939	-628.4234619140626	-385.9508056640626	522.8439941406251	-625.2648315429689	-373.1969299316407	503.9657287597657	-756.7432250976564	-354.9555053710938	331.0398559570313	-631.0617675781251	-436.907684326172	265.9889831542969	-606.0886230468751	-392.3515930175782	255.8901977539063	-612.2572021484376	-380.0540161132813	205.7310791015626	-640.5139160156251	-447.7698974609376	100.408317565918	-615.3201904296876	-416.586151123047	105.7913665771485	-700.9813232421876	-500.5505371093751	47.01442337036134	-677.5218505859376	-279.5085754394532	57.1387405395508	-643.3211059570314	-290.8997192382813	60.6671600341797	-603.9715576171876	-340.6113586425782	36.19552612304688	-559.4117431640626	nan	nan	nan	nan	nan	nan	
159	0.79	-180.0653839111328	1727.701416015625	-889.3860473632815	-315.1130065917969	1698.033569335938	-914.3648681640627	-355.6516113281251	1664.744995117188	-776.8986816406252	-396.2229309082032	1550.778076171875	-836.6632080078127	-470.7475585937501	1232.904663085938	-843.8100585937502	-285.6907653808594	1459.294799804688	-828.8018798828127	-336.4638977050782	1520.681396484375	-999.1978149414065	-420.4447631835939	1396.648803710938	-1149.383056640625	-406.6630249023439	1349.48583984375	-1144.916381835938	-447.2837524414064	1346.842407226563	-1189.597290039063	-480.3595581054689	1302.506591796875	-1229.319580078125	-542.3004150390626	1298.30712890625	-1182.90234375	-446.3054809570314	1066.872436523438	-1059.396484375	-398.7949829101564	1045.377075195313	-1113.826538085938	-396.2030334472657	1076.868041992188	-1018.047546386719	-343.6637573242188	1508.026977539063	-661.8440551757814	-452.9201965332032	1420.408935546875	-508.5241699218751	-432.2187500000001	1375.560913085938	-498.5668334960939	-477.8166503906251	1376.279541015625	-459.539276123047	-491.4889221191407	1317.464599609375	-418.2501220703126	-558.5974121093751	1300.972778320313	-469.388153076172	-426.6639709472657	1113.52490234375	-608.1073608398439	-391.4284057617189	1075.993041992188	-552.7023925781251	-368.1803894042969	1122.6337890625	-652.0313110351564	-305.3282165527344	1033.704223632813	-931.359558105469	-321.5249328613282	1040.016479492188	-715.2504882812501	-494.5125732421876	1101.668212890625	-832.2105102539065	-500.7733764648439	1072.221313476563	-858.725769042969	-509.1361694335939	1074.393676757813	-803.8814086914065	-435.2539672851564	799.1243896484377	-1031.303466796875	-396.7995605468751	727.6593627929689	-1054.382202148438	-349.3985900878907	732.1771240234376	-1054.840576171875	-417.1851501464845	671.8267211914064	-1048.6064453125	-394.3267517089845	542.2340698242189	-1065.779052734375	-387.5729370117189	496.3358459472657	-940.4556274414065	-360.2693786621094	317.2239074707032	-1074.39892578125	-433.0269775390626	288.1251525878907	-1116.006103515625	-391.3348388671876	276.9096679687501	-1106.37158203125	-380.5863342285157	192.8917846679688	-1087.670654296875	-447.6182250976564	103.503173828125	-1114.225219726563	-407.5655212402345	107.4751510620117	-1034.442626953125	-498.1063232421876	43.75798797607423	-1071.649658203125	-276.5437316894532	59.25934982299806	-1073.855712890625	-281.1812438964844	55.17771911621095	-1120.0390625	-331.7205505371094	30.36652565002442	-1164.85986328125	-399.8095703125001	790.4685668945315	-622.1645507812501	-365.0035705566407	732.8768310546876	-617.7835083007814	-332.4732055664063	734.2316284179689	-622.1644287109376	-394.6291503906251	655.1339111328126	-628.0704345703126	-385.4610900878907	522.6940307617189	-625.2017211914064	-372.8741455078126	503.9339599609376	-756.5607299804689	-354.7313537597657	330.9707946777344	-630.8923950195314	-436.5974426269532	265.8968505859376	-606.0951538085939	-392.1510009765626	255.7817535400391	-612.2117919921876	-379.7337951660157	205.5009002685547	-640.5322875976564	-447.7300109863282	100.4399948120117	-615.3311767578126	-416.5200500488282	105.7546920776367	-701.0247802734376	-500.591033935547	47.04716110229493	-677.5371704101564	-279.4879455566407	57.1431121826172	-643.3721313476564	-290.8575744628907	60.67866134643556	-604.0034179687501	-340.5612792968751	36.2495460510254	-559.4645385742189	nan	nan	nan	nan	nan	nan	
160	0.795	-180.2708587646485	1727.666870117188	-888.5345458984377	-315.1532897949219	1698.0908203125	-913.5469360351565	-356.0119018554688	1664.96337890625	-775.609802246094	-396.2629394531251	1550.660522460938	-835.714294433594	-470.6220092773439	1232.989501953125	-843.0847167968752	-285.4932556152344	1459.424926757813	-828.0515747070315	-336.8114624023438	1520.81884765625	-998.0358886718752	-420.2112731933595	1396.784790039063	-1148.619384765625	-406.5408020019532	1349.658447265625	-1144.150390625	-447.1994018554689	1347.033935546875	-1188.959594726563	-480.2258605957032	1302.740234375	-1228.636962890625	-542.0872192382814	1298.597900390625	-1182.422607421875	-446.3995056152345	1066.84716796875	-1058.924682617188	-398.8519592285157	1045.421508789063	-1113.328857421875	-396.3891601562501	1076.946899414063	-1017.61376953125	-343.3861083984376	1507.763061523438	-660.9492187500001	-453.2530212402345	1420.02734375	-507.7515258789064	-431.9480895996095	1375.354248046875	-497.9012145996095	-477.6303100585939	1376.145141601563	-458.6758422851564	-491.2037353515626	1316.599731445313	-417.5364685058595	-558.3972167968751	1300.677001953125	-468.5231933593751	-426.4980773925782	1113.406860351563	-607.6280517578126	-391.5075073242189	1076.0087890625	-552.2603759765626	-368.4002075195313	1122.614135742188	-651.6295166015626	-305.9128112792969	1033.542846679688	-930.8155517578127	-321.8232116699219	1040.006958007813	-714.8726806640626	-494.8431396484376	1102.203491210938	-831.864929199219	-500.8148803710939	1072.132446289063	-858.298278808594	-509.3585815429689	1074.354858398438	-803.4510498046877	-435.0298461914064	798.8662109375002	-1031.1962890625	-396.2646789550782	727.6248168945314	-1054.23876953125	-348.8825988769532	732.3327026367189	-1054.528076171875	-416.4927368164064	671.7304687500001	-1048.443237304688	-393.1388244628907	542.2050781250001	-1065.641967773438	-386.6416625976564	496.175750732422	-940.2679443359377	-359.2735290527344	316.8723144531251	-1074.197998046875	-432.4418334960939	288.2726745605469	-1115.962524414063	-390.5602111816407	276.8668212890626	-1106.281372070313	-380.0218811035157	192.5698547363282	-1087.645263671875	-447.5139770507814	103.6455688476563	-1114.202392578125	-407.3470764160157	107.2285232543946	-1034.585327148438	-498.0635681152345	43.75019073486329	-1071.659912109375	-276.4716796875001	59.24111938476564	-1073.91357421875	-281.1831970214844	55.17848587036134	-1120.03466796875	-331.6731567382813	30.30768394470216	-1164.875122070313	-399.6491088867189	790.3355712890627	-621.7724609375001	-365.0833740234376	732.4041748046876	-617.8146362304689	-332.2188415527344	734.1740722656251	-621.8164672851564	-394.4960937500001	654.9522094726564	-627.9519042968751	-385.1401672363282	522.7005615234376	-624.9226074218751	-372.6290893554688	503.9271240234376	-756.3732299804689	-354.4987487792969	330.9868774414063	-630.7434082031251	-436.4724731445314	265.8544921875001	-606.0213012695314	-391.9632873535157	255.6566162109376	-612.0254516601564	-379.5734252929688	205.3571166992188	-640.5265502929689	-447.689178466797	100.3784484863282	-615.3327636718751	-416.5433959960939	105.7838897705078	-701.0462036132814	-500.6078186035157	47.04446029663087	-677.5317993164064	-279.5189514160157	57.10805892944337	-643.3484497070314	-290.9082641601563	60.70749664306642	-604.0677490234376	-340.5924682617188	36.29451751708985	-559.4618530273439	nan	nan	nan	nan	nan	nan	
